# xmcd
#
# Track frame offsets:
#	150
#	113405
#	124595
#	144036
#	155861
#	180619
#	198162
#	215415
#	230916
#	242843
#	261416
#	275641
#	285915
#	307702
#	309538
#	326391
#
# Disc length: 4596 seconds
#
# Revision: 0
# Processed by: cddbd v1.5.1PL0 Copyright (c) Steve Scherf et al.
# Submitted via: audiograbber 1.83.01
#
DISCID=df11f210
DTITLE=Ol' Dirty Bastard - In Loving Memory of Russell Jones Vol.2
DYEAR=2004
DGENRE=Hip-Hop
TTITLE0=Wu Tang Radio 1.1 (Live From London) Hosted by: Ol' Dirty Bastard, RZA,
TTITLE0=Method Man, and Masta Killa
TTITLE1=Shimmy Shimmy Ya
TTITLE2=Recognize feat. Chris Rock
TTITLE3=Maria feat. Cappadonna
TTITLE4=Everytime feat. Jon B
TTITLE5=Thirsty feat. Black Keith
TTITLE6=Keep The Reciept feat. Kanye West
TTITLE7=Hip-Hop Drunkies feat. The Alkaholics
TTITLE8=Ol' Dirtys Back feat. 12 O'Clock
TTITLE9=Ason Unique and Prince Rakeem - 1st Time On Stretch Armstrong and Bobbito S
TTITLE9=how (Classic)
TTITLE10=How We Treat Them Hoes Freestyle
TTITLE11=Ghetto Superstar Live at MTV Awards feat. Mya and Pras
TTITLE12=Dirty feat. Slum Village
TTITLE13=Operator feat. Pharrell
TTITLE14=Ain't Saying Nothing feat. Jodeci
TTITLE15=Reunited
EXTD=
EXTT0=
EXTT1=
EXTT2=
EXTT3=
EXTT4=
EXTT5=
EXTT6=
EXTT7=
EXTT8=
EXTT9=
EXTT10=
EXTT11=
EXTT12=
EXTT13=
EXTT14=
EXTT15=
PLAYORDER=
